<?xml version="1.0" encoding="UTF-8" standalone="no"?>
<svg xmlns="http://www.w3.org/2000/svg" contentScriptType="application/ecmascript" contentStyleType="text/css"
     height="598px" preserveAspectRatio="none" style="width:580px;height:598px;" version="1.1" viewBox="0 0 580 598"
     width="580px" zoomAndPan="magnify"><defs><filter height="300%" id="fjg8cc40cf81a" width="300%" x="-1" y="-1"><feGaussianBlur result="blurOut" stdDeviation="2.0"/><feColorMatrix in="blurOut" result="blurOut2" type="matrix" values="0 0 0 0 0 0 0 0 0 0 0 0 0 0 0 0 0 0 .4 0"/><feOffset dx="4.0" dy="4.0" in="blurOut2" result="blurOut3"/><feBlend in="SourceGraphic" in2="blurOut3" mode="normal"/></filter></defs><g><rect fill="#FFFFFF" filter="url(#fjg8cc40cf81a)" height="71.6211" style="stroke: #A80036; stroke-width: 1.0;" width="10" x="410.5" y="147.1094"/><rect fill="#FFFFFF" filter="url(#fjg8cc40cf81a)" height="29.3105" style="stroke: #A80036; stroke-width: 1.0;" width="10" x="539.5" y="248.041"/><rect fill="#FFFFFF" filter="url(#fjg8cc40cf81a)" height="102.5313" style="stroke: #000000; stroke-width: 2.0;" width="302" x="153" y="391.9277"/><rect fill="#FFFFFF" height="55.9102" style="stroke: none; stroke-width: 1.0;" width="302" x="153" y="438.5488"/><line style="stroke: #A80036; stroke-width: 1.0;" x1="45" x2="45" y1="86.4883" y2="285.3516"/><line style="stroke: #A80036; stroke-width: 1.0; stroke-dasharray: 1.0,4.0;" x1="45" x2="45" y1="285.3516" y2="326.3066"/><line style="stroke: #A80036; stroke-width: 1.0;" x1="45" x2="45" y1="326.3066" y2="453.5039"/><line style="stroke: #A80036; stroke-width: 1.0; stroke-dasharray: 1.0,4.0;" x1="45" x2="45" y1="453.5039" y2="494.459"/><line style="stroke: #A80036; stroke-width: 1.0;" x1="45" x2="45" y1="494.459" y2="511.459"/><line style="stroke: #A80036; stroke-width: 1.0;" x1="202" x2="202" y1="86.4883" y2="285.3516"/><line style="stroke: #A80036; stroke-width: 1.0; stroke-dasharray: 1.0,4.0;" x1="202" x2="202" y1="285.3516" y2="326.3066"/><line style="stroke: #A80036; stroke-width: 1.0;" x1="202" x2="202" y1="326.3066" y2="453.5039"/><line style="stroke: #A80036; stroke-width: 1.0; stroke-dasharray: 1.0,4.0;" x1="202" x2="202" y1="453.5039" y2="494.459"/><line style="stroke: #A80036; stroke-width: 1.0;" x1="202" x2="202" y1="494.459" y2="511.459"/><line style="stroke: #A80036; stroke-width: 1.0;" x1="415" x2="415" y1="86.4883" y2="285.3516"/><line style="stroke: #A80036; stroke-width: 1.0; stroke-dasharray: 1.0,4.0;" x1="415" x2="415" y1="285.3516" y2="326.3066"/><line style="stroke: #A80036; stroke-width: 1.0;" x1="415" x2="415" y1="326.3066" y2="453.5039"/><line style="stroke: #A80036; stroke-width: 1.0; stroke-dasharray: 1.0,4.0;" x1="415" x2="415" y1="453.5039" y2="494.459"/><line style="stroke: #A80036; stroke-width: 1.0;" x1="415" x2="415" y1="494.459" y2="511.459"/><line style="stroke: #A80036; stroke-width: 1.0;" x1="544" x2="544" y1="86.4883" y2="285.3516"/><line style="stroke: #A80036; stroke-width: 1.0; stroke-dasharray: 1.0,4.0;" x1="544" x2="544" y1="285.3516" y2="326.3066"/><line style="stroke: #A80036; stroke-width: 1.0;" x1="544" x2="544" y1="326.3066" y2="453.5039"/><line style="stroke: #A80036; stroke-width: 1.0; stroke-dasharray: 1.0,4.0;" x1="544" x2="544" y1="453.5039" y2="494.459"/><line style="stroke: #A80036; stroke-width: 1.0;" x1="544" x2="544" y1="494.459" y2="511.459"/><text fill="#000000" font-family="sans-serif" font-size="14" lengthAdjust="spacingAndGlyphs" textLength="69" x="8" y="83.5352">Requester</text><ellipse cx="45.5" cy="13" fill="#FEFECE" filter="url(#fjg8cc40cf81a)" rx="8" ry="8" style="stroke: #A80036; stroke-width: 2.0;"/><path d="M45.5,21 L45.5,48 M32.5,29 L58.5,29 M45.5,48 L32.5,63 M45.5,48 L58.5,63 " fill="none" filter="url(#fjg8cc40cf81a)" style="stroke: #A80036; stroke-width: 2.0;"/><text fill="#000000" font-family="sans-serif" font-size="14" lengthAdjust="spacingAndGlyphs" textLength="69" x="8" y="523.9941">Requester</text><ellipse cx="45.5" cy="536.9473" fill="#FEFECE" filter="url(#fjg8cc40cf81a)" rx="8" ry="8" style="stroke: #A80036; stroke-width: 2.0;"/><path d="M45.5,544.9473 L45.5,571.9473 M32.5,552.9473 L58.5,552.9473 M45.5,571.9473 L32.5,586.9473 M45.5,571.9473 L58.5,586.9473 " fill="none" filter="url(#fjg8cc40cf81a)" style="stroke: #A80036; stroke-width: 2.0;"/><text fill="#000000" font-family="sans-serif" font-size="14" lengthAdjust="spacingAndGlyphs" textLength="73" x="163" y="83.5352">Blockchain</text><path d="M184.5,34 C184.5,24 202.5,24 202.5,24 C202.5,24 220.5,24 220.5,34 L220.5,60 C220.5,70 202.5,70 202.5,70 C202.5,70 184.5,70 184.5,60 L184.5,34 " fill="#FEFECE" filter="url(#fjg8cc40cf81a)" style="stroke: #000000; stroke-width: 1.5;"/><path d="M184.5,34 C184.5,44 202.5,44 202.5,44 C202.5,44 220.5,44 220.5,34 " fill="none" style="stroke: #000000; stroke-width: 1.5;"/><text fill="#000000" font-family="sans-serif" font-size="14" lengthAdjust="spacingAndGlyphs" textLength="73" x="163" y="523.9941">Blockchain</text><path d="M184.5,536.9473 C184.5,526.9473 202.5,526.9473 202.5,526.9473 C202.5,526.9473 220.5,526.9473 220.5,536.9473 L220.5,562.9473 C220.5,572.9473 202.5,572.9473 202.5,572.9473 C202.5,572.9473 184.5,572.9473 184.5,562.9473 L184.5,536.9473 " fill="#FEFECE" filter="url(#fjg8cc40cf81a)" style="stroke: #000000; stroke-width: 1.5;"/><path d="M184.5,536.9473 C184.5,546.9473 202.5,546.9473 202.5,546.9473 C202.5,546.9473 220.5,546.9473 220.5,536.9473 " fill="none" style="stroke: #000000; stroke-width: 1.5;"/><text fill="#000000" font-family="sans-serif" font-size="14" lengthAdjust="spacingAndGlyphs" textLength="53" x="386" y="83.5352">Oracle1</text><ellipse cx="415.5" cy="54" fill="#FEFECE" filter="url(#fjg8cc40cf81a)" rx="12" ry="12" style="stroke: #A80036; stroke-width: 2.0;"/><line style="stroke: #A80036; stroke-width: 2.0;" x1="403.5" x2="427.5" y1="68" y2="68"/><text fill="#000000" font-family="sans-serif" font-size="14" lengthAdjust="spacingAndGlyphs" textLength="53" x="386" y="523.9941">Oracle1</text><ellipse cx="415.5" cy="542.9473" fill="#FEFECE" filter="url(#fjg8cc40cf81a)" rx="12" ry="12" style="stroke: #A80036; stroke-width: 2.0;"/><line style="stroke: #A80036; stroke-width: 2.0;" x1="403.5" x2="427.5" y1="556.9473" y2="556.9473"/><text fill="#000000" font-family="sans-serif" font-size="14" lengthAdjust="spacingAndGlyphs" textLength="53" x="515" y="83.5352">Oracle2</text><ellipse cx="544.5" cy="54" fill="#FEFECE" filter="url(#fjg8cc40cf81a)" rx="12" ry="12" style="stroke: #A80036; stroke-width: 2.0;"/><line style="stroke: #A80036; stroke-width: 2.0;" x1="532.5" x2="556.5" y1="68" y2="68"/><text fill="#000000" font-family="sans-serif" font-size="14" lengthAdjust="spacingAndGlyphs" textLength="53" x="515" y="523.9941">Oracle2</text><ellipse cx="544.5" cy="542.9473" fill="#FEFECE" filter="url(#fjg8cc40cf81a)" rx="12" ry="12" style="stroke: #A80036; stroke-width: 2.0;"/><line style="stroke: #A80036; stroke-width: 2.0;" x1="532.5" x2="556.5" y1="556.9473" y2="556.9473"/><rect fill="#FFFFFF" filter="url(#fjg8cc40cf81a)" height="71.6211" style="stroke: #A80036; stroke-width: 1.0;" width="10" x="410.5" y="147.1094"/><rect fill="#FFFFFF" filter="url(#fjg8cc40cf81a)" height="29.3105" style="stroke: #A80036; stroke-width: 1.0;" width="10" x="539.5" y="248.041"/><polygon fill="#A80036" points="190.5,113.7988,200.5,117.7988,190.5,121.7988,194.5,117.7988" style="stroke: #A80036; stroke-width: 1.0;"/><line style="stroke: #A80036; stroke-width: 1.0;" x1="45.5" x2="196.5" y1="117.7988" y2="117.7988"/><text fill="#000000" font-family="sans-serif" font-size="13" lengthAdjust="spacingAndGlyphs" textLength="133" x="52.5" y="113.0566">MsgRequestCompute</text><polygon fill="#A80036" points="398.5,143.1094,408.5,147.1094,398.5,151.1094,402.5,147.1094" style="stroke: #A80036; stroke-width: 1.0;"/><line style="stroke: #A80036; stroke-width: 1.0; stroke-dasharray: 2.0,2.0;" x1="202.5" x2="404.5" y1="147.1094" y2="147.1094"/><text fill="#000000" font-family="sans-serif" font-size="13" lengthAdjust="spacingAndGlyphs" textLength="189" x="209.5" y="142.3672">(1st oracle selected randomly)</text><line style="stroke: #A80036; stroke-width: 1.0;" x1="420.5" x2="462.5" y1="176.4199" y2="176.4199"/><line style="stroke: #A80036; stroke-width: 1.0;" x1="462.5" x2="462.5" y1="176.4199" y2="189.4199"/><line style="stroke: #A80036; stroke-width: 1.0;" x1="421.5" x2="462.5" y1="189.4199" y2="189.4199"/><polygon fill="#A80036" points="431.5,185.4199,421.5,189.4199,431.5,193.4199,427.5,189.4199" style="stroke: #A80036; stroke-width: 1.0;"/><text fill="#000000" font-family="sans-serif" font-size="13" lengthAdjust="spacingAndGlyphs" textLength="105" x="427.5" y="171.6777">run computation</text><polygon fill="#A80036" points="213.5,214.7305,203.5,218.7305,213.5,222.7305,209.5,218.7305" style="stroke: #A80036; stroke-width: 1.0;"/><line style="stroke: #A80036; stroke-width: 1.0;" x1="207.5" x2="414.5" y1="218.7305" y2="218.7305"/><text fill="#000000" font-family="sans-serif" font-size="13" lengthAdjust="spacingAndGlyphs" textLength="115" x="219.5" y="213.9883">MsgCommitResult</text><polygon fill="#A80036" points="527.5,244.041,537.5,248.041,527.5,252.041,531.5,248.041" style="stroke: #A80036; stroke-width: 1.0;"/><line style="stroke: #A80036; stroke-width: 1.0; stroke-dasharray: 2.0,2.0;" x1="202.5" x2="533.5" y1="248.041" y2="248.041"/><text fill="#000000" font-family="sans-serif" font-size="13" lengthAdjust="spacingAndGlyphs" textLength="193" x="209.5" y="243.2988">(2nd oracle selected randomly)</text><polygon fill="#A80036" points="213.5,273.3516,203.5,277.3516,213.5,281.3516,209.5,277.3516" style="stroke: #A80036; stroke-width: 1.0;"/><line style="stroke: #A80036; stroke-width: 1.0;" x1="207.5" x2="543.5" y1="277.3516" y2="277.3516"/><text fill="#000000" font-family="sans-serif" font-size="13" lengthAdjust="spacingAndGlyphs" textLength="115" x="219.5" y="272.6094">MsgCommitResult</text><text fill="#000000" font-family="sans-serif" font-size="11" lengthAdjust="spacingAndGlyphs" textLength="188" x="201" y="309.9863">end of round randomly determined</text><polygon fill="#A80036" points="213.5,343.6172,203.5,347.6172,213.5,351.6172,209.5,347.6172" style="stroke: #A80036; stroke-width: 1.0;"/><line style="stroke: #A80036; stroke-width: 1.0;" x1="207.5" x2="414.5" y1="347.6172" y2="347.6172"/><text fill="#000000" font-family="sans-serif" font-size="13" lengthAdjust="spacingAndGlyphs" textLength="93" x="219.5" y="342.875">MsgVoteResult</text><polygon fill="#A80036" points="213.5,372.9277,203.5,376.9277,213.5,380.9277,209.5,376.9277" style="stroke: #A80036; stroke-width: 1.0;"/><line style="stroke: #A80036; stroke-width: 1.0;" x1="207.5" x2="543.5" y1="376.9277" y2="376.9277"/><text fill="#000000" font-family="sans-serif" font-size="13" lengthAdjust="spacingAndGlyphs" textLength="93" x="219.5" y="372.1855">MsgVoteResult</text><path d="M153,391.9277 L215,391.9277 L215,398.9277 L205,408.9277 L153,408.9277 L153,391.9277 " fill="#EEEEEE" style="stroke: #000000; stroke-width: 1.0;"/><rect fill="none" height="102.5313" style="stroke: #000000; stroke-width: 2.0;" width="302" x="153" y="391.9277"/><text fill="#000000" font-family="sans-serif" font-size="13" font-weight="bold" lengthAdjust="spacingAndGlyphs" textLength="17" x="168" y="405.4961">alt</text><text fill="#000000" font-family="sans-serif" font-size="11" font-weight="bold" lengthAdjust="spacingAndGlyphs" textLength="82" x="230" y="404.5625">[oracles agree]</text><polygon fill="#A80036" points="213.5,426.5488,203.5,430.5488,213.5,434.5488,209.5,430.5488" style="stroke: #A80036; stroke-width: 1.0;"/><line style="stroke: #A80036; stroke-width: 1.0;" x1="207.5" x2="414.5" y1="430.5488" y2="430.5488"/><text fill="#000000" font-family="sans-serif" font-size="13" lengthAdjust="spacingAndGlyphs" textLength="99" x="219.5" y="425.8066">MsgShareResult</text><line style="stroke: #000000; stroke-width: 1.0; stroke-dasharray: 2.0,2.0;" x1="153" x2="455" y1="439.5488" y2="439.5488"/><text fill="#000000" font-family="sans-serif" font-size="11" font-weight="bold" lengthAdjust="spacingAndGlyphs" textLength="99" x="158" y="450.1836">[oracles disagree]</text><text fill="#000000" font-family="sans-serif" font-size="11" lengthAdjust="spacingAndGlyphs" textLength="100" x="245" y="478.1387">run another round</text><!--
@startuml
skinparam backgroundColor #FFFFFF
actor Requester
database Blockchain
entity Oracle1
entity Oracle2
Requester -> Blockchain: MsgRequestCompute
Blockchain - -> Oracle1: (1st oracle selected randomly)
activate Oracle1
Oracle1 -> Oracle1: run computation
Oracle1 -> Blockchain: MsgCommitResult
deactivate Oracle1

Blockchain - -> Oracle2: (2nd oracle selected randomly)
activate Oracle2
Oracle2 -> Blockchain: MsgCommitResult
deactivate Oracle2

...end of round randomly determined...

Oracle1 -> Blockchain: MsgVoteResult
Oracle2 -> Blockchain: MsgVoteResult

alt oracles agree
    Oracle1 -> Blockchain: MsgShareResult
else oracles disagree
    ...run another round...
end

@enduml

PlantUML version 1.2018.11(Sat Sep 22 12:43:53 EDT 2018)
(GPL source distribution)
Java Runtime: OpenJDK Runtime Environment
JVM: OpenJDK 64-Bit Server VM
Java Version: 1.8.0_202-release-1483-b31
Operating System: Mac OS X
OS Version: 10.14.2
Default Encoding: UTF-8
Language: en
Country: US
--></g></svg>